<?xml version="1.0" encoding="UTF-8" standalone="no"?>
<!-- Created with Inkscape (http://www.inkscape.org/) -->

<svg
   xmlns:dc="http://purl.org/dc/elements/1.1/"
   xmlns:cc="http://creativecommons.org/ns#"
   xmlns:rdf="http://www.w3.org/1999/02/22-rdf-syntax-ns#"
   xmlns:svg="http://www.w3.org/2000/svg"
   xmlns="http://www.w3.org/2000/svg"
   xmlns:sodipodi="http://sodipodi.sourceforge.net/DTD/sodipodi-0.dtd"
   xmlns:inkscape="http://www.inkscape.org/namespaces/inkscape"
   width="385"
   height="385"
   id="svg2"
   version="1.1"
   inkscape:version="0.48.2 r9819"
   sodipodi:docname="New Logo - Copy - Bigbubbles.svg">
  <defs
     id="defs4" />
  <sodipodi:namedview
     id="base"
     pagecolor="#ffffff"
     bordercolor="#666666"
     borderopacity="1.0"
     inkscape:pageopacity="0.0"
     inkscape:pageshadow="2"
     inkscape:zoom="1.0182338"
     inkscape:cx="28.4368"
     inkscape:cy="154.54335"
     inkscape:document-units="px"
     inkscape:current-layer="layer1"
     showgrid="false"
     inkscape:window-width="1600"
     inkscape:window-height="838"
     inkscape:window-x="-8"
     inkscape:window-y="-8"
     inkscape:window-maximized="1"
     fit-margin-top="0"
     fit-margin-left="0"
     fit-margin-right="0"
     fit-margin-bottom="0">
    <inkscape:grid
       type="xygrid"
       id="grid2985"
       empspacing="5"
       visible="true"
       enabled="true"
       snapvisiblegridlinesonly="true"
       spacingx="5px"
       spacingy="5px" />
  </sodipodi:namedview>
  <metadata
     id="metadata7">
    <rdf:RDF>
      <cc:Work
         rdf:about="">
        <dc:format>image/svg+xml</dc:format>
        <dc:type
           rdf:resource="http://purl.org/dc/dcmitype/StillImage" />
        <dc:title />
      </cc:Work>
    </rdf:RDF>
  </metadata>
  <g
     inkscape:label="Layer 1"
     inkscape:groupmode="layer"
     id="layer1"
     transform="translate(-59.307359,-581.63702)">
    <g
       id="g2991"
       transform="translate(2.4999966,-27.975387)">
      <path
         sodipodi:nodetypes="cc"
         inkscape:connector-curvature="0"
         id="path3812"
         d="m 180.57563,801.58778 72,125"
         style="fill:none;stroke:#000000;stroke-width:10;stroke-linecap:butt;stroke-linejoin:miter;stroke-miterlimit:4;stroke-opacity:1;stroke-dasharray:none" />
      <path
         inkscape:connector-curvature="0"
         id="path3808"
         d="m 103.57563,926.58778 149,-248 149,248"
         style="fill:none;stroke:#000000;stroke-width:10;stroke-linecap:butt;stroke-linejoin:miter;stroke-miterlimit:4;stroke-opacity:1;stroke-dasharray:none" />
      <path
         sodipodi:type="arc"
         style="fill:#000000;fill-opacity:1;stroke:#000000;stroke-width:12;stroke-linecap:square;stroke-miterlimit:4;stroke-opacity:1;stroke-dasharray:none"
         id="path3794"
         sodipodi:cx="120"
         sodipodi:cy="350"
         sodipodi:rx="40"
         sodipodi:ry="50"
         d="m 160,350 c 0,27.61424 -17.90861,50 -40,50 -22.09139,0 -40,-22.38576 -40,-50 0,-27.61424 17.90861,-50 40,-50 22.09139,0 40,22.38576 40,50 z"
         transform="matrix(-0.88170664,0,0,0.70536531,358.38043,430.70992)" />
      <path
         sodipodi:type="arc"
         style="fill:#ffffff;fill-opacity:1;stroke:#000000;stroke-width:12;stroke-linecap:square;stroke-miterlimit:4;stroke-opacity:1;stroke-dasharray:none"
         id="path3798"
         sodipodi:cx="120"
         sodipodi:cy="350"
         sodipodi:rx="40"
         sodipodi:ry="50"
         d="m 160,350 c 0,27.61424 -17.90861,50 -40,50 -22.09139,0 -40,-22.38576 -40,-50 0,-27.61424 17.90861,-50 40,-50 22.09139,0 40,22.38576 40,50 z"
         transform="matrix(-0.88170664,0,0,0.70536531,283.11216,554.70992)" />
      <path
         transform="matrix(-0.88314324,0,0,0.70651459,358.98455,679.35693)"
         d="m 160,350 c 0,27.61424 -17.90861,50 -40,50 -22.09139,0 -40,-22.38576 -40,-50 0,-27.61424 17.90861,-50 40,-50 22.09139,0 40,22.38576 40,50 z"
         sodipodi:ry="50"
         sodipodi:rx="40"
         sodipodi:cy="350"
         sodipodi:cx="120"
         id="path3800"
         style="fill:#ff0000;fill-opacity:1;stroke:#000000;stroke-width:11.83498383;stroke-linecap:square;stroke-miterlimit:4;stroke-opacity:1;stroke-dasharray:none"
         sodipodi:type="arc" />
      <path
         transform="matrix(-0.88170664,0,0,0.70536531,432.38043,554.70993)"
         d="m 160,350 c 0,27.61424 -17.90861,50 -40,50 -22.09139,0 -40,-22.38576 -40,-50 0,-27.61424 17.90861,-50 40,-50 22.09139,0 40,22.38576 40,50 z"
         sodipodi:ry="50"
         sodipodi:rx="40"
         sodipodi:cy="350"
         sodipodi:cx="120"
         id="path3844"
         style="fill:#ffffff;fill-opacity:1;stroke:#000000;stroke-width:12;stroke-linecap:square;stroke-miterlimit:4;stroke-opacity:1;stroke-dasharray:none"
         sodipodi:type="arc" />
      <path
         transform="matrix(-0.88170664,0,0,0.70536531,505.11216,679.75917)"
         d="m 160,350 c 0,27.61424 -17.90861,50 -40,50 -22.09139,0 -40,-22.38576 -40,-50 0,-27.61424 17.90861,-50 40,-50 22.09139,0 40,22.38576 40,50 z"
         sodipodi:ry="50"
         sodipodi:rx="40"
         sodipodi:cy="350"
         sodipodi:cx="120"
         id="path3846"
         style="fill:#000000;fill-opacity:1;stroke:#000000;stroke-width:12;stroke-linecap:square;stroke-miterlimit:4;stroke-opacity:1;stroke-dasharray:none"
         sodipodi:type="arc" />
      <path
         sodipodi:type="arc"
         style="fill:#000000;fill-opacity:1;stroke:#000000;stroke-width:12;stroke-linecap:square;stroke-miterlimit:4;stroke-opacity:1;stroke-dasharray:none"
         id="path3848"
         sodipodi:cx="120"
         sodipodi:cy="350"
         sodipodi:rx="40"
         sodipodi:ry="50"
         d="m 160,350 c 0,27.61424 -17.90861,50 -40,50 -22.09139,0 -40,-22.38576 -40,-50 0,-27.61424 17.90861,-50 40,-50 22.09139,0 40,22.38576 40,50 z"
         transform="matrix(-0.88170665,0,0,0.70536531,205.11216,679.75917)" />
    </g>
  </g>
</svg>
